<mxfile host="app.diagrams.net" agent="Mozilla/5.0 (Windows NT 10.0; Win64; x64) AppleWebKit/537.36 (KHTML, like Gecko) Chrome/124.0.0.0 Safari/537.36" version="24.7.5">
  <diagram name="Página-1" id="I5PyTV5eK-W6r51COVa_">
    <mxGraphModel dx="3854" dy="2234" grid="1" gridSize="10" guides="1" tooltips="1" connect="1" arrows="1" fold="1" page="1" pageScale="1" pageWidth="1654" pageHeight="1169" math="0" shadow="0">
      <root>
        <mxCell id="0" />
        <mxCell id="1" parent="0" />
        <mxCell id="Db2AENE4Oa-zg9t5X0lz-38" style="rounded=0;orthogonalLoop=1;jettySize=auto;html=1;dashed=1;dashPattern=12 12;" edge="1" parent="1" source="Db2AENE4Oa-zg9t5X0lz-48" target="Db2AENE4Oa-zg9t5X0lz-21">
          <mxGeometry relative="1" as="geometry" />
        </mxCell>
        <mxCell id="Db2AENE4Oa-zg9t5X0lz-39" style="rounded=0;orthogonalLoop=1;jettySize=auto;html=1;dashed=1;dashPattern=12 12;" edge="1" parent="1" source="Db2AENE4Oa-zg9t5X0lz-45" target="Db2AENE4Oa-zg9t5X0lz-20">
          <mxGeometry relative="1" as="geometry" />
        </mxCell>
        <object placeholders="1" c4Name="Estudiante, Profesor, Encargado" c4Type="Person" c4Description="Personal Univeridad ABC" label="&lt;font style=&quot;font-size: 16px&quot;&gt;&lt;b&gt;%c4Name%&lt;/b&gt;&lt;/font&gt;&lt;div&gt;[%c4Type%]&lt;/div&gt;&lt;br&gt;&lt;div&gt;&lt;font style=&quot;font-size: 11px&quot;&gt;&lt;font color=&quot;#cccccc&quot;&gt;%c4Description%&lt;/font&gt;&lt;/div&gt;" id="Db2AENE4Oa-zg9t5X0lz-1">
          <mxCell style="html=1;fontSize=11;dashed=0;whiteSpace=wrap;fillColor=#083F75;strokeColor=#06315C;fontColor=#ffffff;shape=mxgraph.c4.person2;align=center;metaEdit=1;points=[[0.5,0,0],[1,0.5,0],[1,0.75,0],[0.75,1,0],[0.5,1,0],[0.25,1,0],[0,0.75,0],[0,0.5,0]];resizable=0;" vertex="1" parent="1">
            <mxGeometry x="-1027" y="-1120" width="200" height="180" as="geometry" />
          </mxCell>
        </object>
        <object placeholders="1" c4Name="E-Mail" c4Type="Software System" c4Description="Permite la notificación de reservación de material bibliográfico, alertas de gestión " label="&lt;font style=&quot;font-size: 16px&quot;&gt;&lt;b&gt;%c4Name%&lt;/b&gt;&lt;/font&gt;&lt;div&gt;[%c4Type%]&lt;/div&gt;&lt;br&gt;&lt;div&gt;&lt;font style=&quot;font-size: 11px&quot;&gt;&lt;font color=&quot;#cccccc&quot;&gt;%c4Description%&lt;/font&gt;&lt;/div&gt;" id="Db2AENE4Oa-zg9t5X0lz-5">
          <mxCell style="rounded=1;whiteSpace=wrap;html=1;labelBackgroundColor=none;fillColor=#8C8496;fontColor=#ffffff;align=center;arcSize=10;strokeColor=#736782;metaEdit=1;resizable=0;points=[[0.25,0,0],[0.5,0,0],[0.75,0,0],[1,0.25,0],[1,0.5,0],[1,0.75,0],[0.75,1,0],[0.5,1,0],[0.25,1,0],[0,0.75,0],[0,0.5,0],[0,0.25,0]];" vertex="1" parent="1">
            <mxGeometry x="-260" y="-720" width="240" height="120" as="geometry" />
          </mxCell>
        </object>
        <object placeholders="1" c4Name="Sistema de Gestión Principal" c4Type="Software System" c4Description="Se encuentra la información de roles y permisos para uso y gestión de material bibliográfico" label="&lt;font style=&quot;font-size: 16px&quot;&gt;&lt;b&gt;%c4Name%&lt;/b&gt;&lt;/font&gt;&lt;div&gt;[%c4Type%]&lt;/div&gt;&lt;br&gt;&lt;div&gt;&lt;font style=&quot;font-size: 11px&quot;&gt;&lt;font color=&quot;#cccccc&quot;&gt;%c4Description%&lt;/font&gt;&lt;/div&gt;" id="Db2AENE4Oa-zg9t5X0lz-16">
          <mxCell style="rounded=1;whiteSpace=wrap;html=1;labelBackgroundColor=none;fillColor=#8C8496;fontColor=#ffffff;align=center;arcSize=10;strokeColor=#736782;metaEdit=1;resizable=0;points=[[0.25,0,0],[0.5,0,0],[0.75,0,0],[1,0.25,0],[1,0.5,0],[1,0.75,0],[0.75,1,0],[0.5,1,0],[0.25,1,0],[0,0.75,0],[0,0.5,0],[0,0.25,0]];" vertex="1" parent="1">
            <mxGeometry x="-250" y="-490" width="240" height="120" as="geometry" />
          </mxCell>
        </object>
        <mxCell id="Db2AENE4Oa-zg9t5X0lz-36" value="" style="group" vertex="1" connectable="0" parent="1">
          <mxGeometry x="-1640" y="-720" width="1240" height="390" as="geometry" />
        </mxCell>
        <object placeholders="1" c4Name="SISTEMA SISGEB" c4Type="ContainerScopeBoundary" c4Application="Software Sytema" label="&lt;font style=&quot;font-size: 16px&quot;&gt;&lt;b&gt;&lt;div style=&quot;text-align: left&quot;&gt;%c4Name%&lt;/div&gt;&lt;/b&gt;&lt;/font&gt;&lt;div style=&quot;text-align: left&quot;&gt;[%c4Application%]&lt;/div&gt;" id="Db2AENE4Oa-zg9t5X0lz-18">
          <mxCell style="rounded=1;fontSize=11;whiteSpace=wrap;html=1;dashed=1;arcSize=20;fillColor=none;strokeColor=#666666;fontColor=#333333;labelBackgroundColor=none;align=left;verticalAlign=bottom;labelBorderColor=none;spacingTop=0;spacing=10;dashPattern=8 4;metaEdit=1;rotatable=0;perimeter=rectanglePerimeter;noLabel=0;labelPadding=0;allowArrows=0;connectable=0;expand=0;recursiveResize=0;editable=1;pointerEvents=0;absoluteArcSize=1;points=[[0.25,0,0],[0.5,0,0],[0.75,0,0],[1,0.25,0],[1,0.5,0],[1,0.75,0],[0.75,1,0],[0.5,1,0],[0.25,1,0],[0,0.75,0],[0,0.5,0],[0,0.25,0]];" vertex="1" parent="Db2AENE4Oa-zg9t5X0lz-36">
            <mxGeometry width="1240" height="390" as="geometry" />
          </mxCell>
        </object>
        <object placeholders="1" c4Name="Aplicación Web" c4Type="Contenedor: JavaScript y MVC" c4Description="Ofrece contenido y aplicación en una misma pagina de uso y gestión de material bibliográfico " label="&lt;font style=&quot;font-size: 12px&quot;&gt;&lt;b&gt;%c4Name%&lt;/b&gt;&lt;/font&gt;&lt;div&gt;[%c4Type%]&lt;/div&gt;&lt;br&gt;&lt;div&gt;&lt;font style=&quot;font-size: 11px&quot;&gt;&lt;font color=&quot;#cccccc&quot;&gt;%c4Description%&lt;/font&gt;&lt;/div&gt;" id="Db2AENE4Oa-zg9t5X0lz-19">
          <mxCell style="rounded=1;whiteSpace=wrap;html=1;labelBackgroundColor=none;fillColor=#1061B0;fontColor=#ffffff;align=center;arcSize=10;strokeColor=#0D5091;metaEdit=1;resizable=0;points=[[0.25,0,0],[0.5,0,0],[0.75,0,0],[1,0.25,0],[1,0.5,0],[1,0.75,0],[0.75,1,0],[0.5,1,0],[0.25,1,0],[0,0.75,0],[0,0.5,0],[0,0.25,0]];" vertex="1" parent="Db2AENE4Oa-zg9t5X0lz-36">
            <mxGeometry x="30" y="16" width="240" height="120" as="geometry" />
          </mxCell>
        </object>
        <object placeholders="1" c4Name="Pagina de aplicación" c4Type="Contenedor: JavaScript y Angular" c4Description="Proporciona todas las funciones de uso y gestión de MB por internet a través de navegador" label="&lt;font style=&quot;font-size: 12px&quot;&gt;&lt;b&gt;%c4Name%&lt;/b&gt;&lt;/font&gt;&lt;div&gt;[%c4Type%]&lt;/div&gt;&lt;br&gt;&lt;div&gt;&lt;font style=&quot;font-size: 11px&quot;&gt;&lt;font color=&quot;#cccccc&quot;&gt;%c4Description%&lt;/font&gt;&lt;/div&gt;" id="Db2AENE4Oa-zg9t5X0lz-20">
          <mxCell style="rounded=1;whiteSpace=wrap;html=1;labelBackgroundColor=none;fillColor=#1061B0;fontColor=#ffffff;align=center;arcSize=10;strokeColor=#0D5091;metaEdit=1;resizable=0;points=[[0.25,0,0],[0.5,0,0],[0.75,0,0],[1,0.25,0],[1,0.5,0],[1,0.75,0],[0.75,1,0],[0.5,1,0],[0.25,1,0],[0,0.75,0],[0,0.5,0],[0,0.25,0]];" vertex="1" parent="Db2AENE4Oa-zg9t5X0lz-36">
            <mxGeometry x="480" y="16" width="240" height="120" as="geometry" />
          </mxCell>
        </object>
        <mxCell id="Db2AENE4Oa-zg9t5X0lz-27" style="rounded=0;orthogonalLoop=1;jettySize=auto;html=1;entryX=0.5;entryY=0;entryDx=0;entryDy=0;entryPerimeter=0;dashed=1;dashPattern=12 12;exitX=0;exitY=0.75;exitDx=0;exitDy=0;" edge="1" parent="Db2AENE4Oa-zg9t5X0lz-36" source="Db2AENE4Oa-zg9t5X0lz-28" target="Db2AENE4Oa-zg9t5X0lz-22">
          <mxGeometry relative="1" as="geometry">
            <mxPoint x="659.9999999999998" y="226" as="targetPoint" />
          </mxGeometry>
        </mxCell>
        <object placeholders="1" c4Name="Aplicación Movil" c4Type="Contenedor React" c4Description="Genera funcionalidad de software con o sin necesidad de internet" label="&lt;font style=&quot;font-size: 12px&quot;&gt;&lt;b&gt;%c4Name%&lt;/b&gt;&lt;/font&gt;&lt;div&gt;[%c4Type%]&lt;/div&gt;&lt;br&gt;&lt;div&gt;&lt;font style=&quot;font-size: 11px&quot;&gt;&lt;font color=&quot;#cccccc&quot;&gt;%c4Description%&lt;/font&gt;&lt;/div&gt;" id="Db2AENE4Oa-zg9t5X0lz-21">
          <mxCell style="rounded=1;whiteSpace=wrap;html=1;labelBackgroundColor=none;fillColor=#1061B0;fontColor=#ffffff;align=center;arcSize=10;strokeColor=#0D5091;metaEdit=1;resizable=0;points=[[0.25,0,0],[0.5,0,0],[0.75,0,0],[1,0.25,0],[1,0.5,0],[1,0.75,0],[0.75,1,0],[0.5,1,0],[0.25,1,0],[0,0.75,0],[0,0.5,0],[0,0.25,0]];" vertex="1" parent="Db2AENE4Oa-zg9t5X0lz-36">
            <mxGeometry x="940" y="16" width="240" height="120" as="geometry" />
          </mxCell>
        </object>
        <object placeholders="1" c4Name="Api Aplication" c4Type="Contenedor: Java, Angular" c4Description="Proporciona funcionalidad a la Biblioteca a través de internet con API JSON/HTTPS" label="&lt;font style=&quot;font-size: 12px&quot;&gt;&lt;b&gt;%c4Name%&lt;/b&gt;&lt;/font&gt;&lt;div&gt;[%c4Type%]&lt;/div&gt;&lt;br&gt;&lt;div&gt;&lt;font style=&quot;font-size: 11px&quot;&gt;&lt;font color=&quot;#cccccc&quot;&gt;%c4Description%&lt;/font&gt;&lt;/div&gt;" id="Db2AENE4Oa-zg9t5X0lz-22">
          <mxCell style="rounded=1;whiteSpace=wrap;html=1;labelBackgroundColor=none;fillColor=#1061B0;fontColor=#ffffff;align=center;arcSize=10;strokeColor=#0D5091;metaEdit=1;resizable=0;points=[[0.25,0,0],[0.5,0,0],[0.75,0,0],[1,0.25,0],[1,0.5,0],[1,0.75,0],[0.75,1,0],[0.5,1,0],[0.25,1,0],[0,0.75,0],[0,0.5,0],[0,0.25,0]];" vertex="1" parent="Db2AENE4Oa-zg9t5X0lz-36">
            <mxGeometry x="700" y="248" width="240" height="120" as="geometry" />
          </mxCell>
        </object>
        <object placeholders="1" c4Name="Base de Datos" c4Type="Contenedor: esquema de base de datos MySQL" c4Technology="MySQL" c4Description="Almacena información de registro de usuario, credenciales de autenticación hash, registro de reservación de MB, etc" label="&lt;font style=&quot;font-size: 12px&quot;&gt;&lt;b&gt;%c4Name%&lt;/b&gt;&lt;/font&gt;&lt;div&gt;[%c4Type%:&amp;nbsp;%c4Technology%]&lt;/div&gt;&lt;br&gt;&lt;div&gt;&lt;font style=&quot;font-size: 11px&quot;&gt;&lt;font color=&quot;#E6E6E6&quot;&gt;%c4Description%&lt;/font&gt;&lt;/div&gt;" id="Db2AENE4Oa-zg9t5X0lz-23">
          <mxCell style="shape=cylinder3;size=15;whiteSpace=wrap;html=1;boundedLbl=1;rounded=0;labelBackgroundColor=none;fillColor=#23A2D9;fontSize=12;fontColor=#ffffff;align=center;strokeColor=#0E7DAD;metaEdit=1;points=[[0.5,0,0],[1,0.25,0],[1,0.5,0],[1,0.75,0],[0.5,1,0],[0,0.75,0],[0,0.5,0],[0,0.25,0]];resizable=0;" vertex="1" parent="Db2AENE4Oa-zg9t5X0lz-36">
            <mxGeometry x="140" y="216" width="240" height="120" as="geometry" />
          </mxCell>
        </object>
        <mxCell id="Db2AENE4Oa-zg9t5X0lz-24" style="edgeStyle=orthogonalEdgeStyle;rounded=0;orthogonalLoop=1;jettySize=auto;html=1;entryX=0;entryY=0.5;entryDx=0;entryDy=0;entryPerimeter=0;dashed=1;dashPattern=12 12;" edge="1" parent="Db2AENE4Oa-zg9t5X0lz-36" source="Db2AENE4Oa-zg9t5X0lz-34" target="Db2AENE4Oa-zg9t5X0lz-20">
          <mxGeometry relative="1" as="geometry" />
        </mxCell>
        <mxCell id="Db2AENE4Oa-zg9t5X0lz-25" style="edgeStyle=orthogonalEdgeStyle;rounded=0;orthogonalLoop=1;jettySize=auto;html=1;entryX=0.993;entryY=0.594;entryDx=0;entryDy=0;entryPerimeter=0;dashed=1;dashPattern=12 12;" edge="1" parent="Db2AENE4Oa-zg9t5X0lz-36" source="Db2AENE4Oa-zg9t5X0lz-32" target="Db2AENE4Oa-zg9t5X0lz-23">
          <mxGeometry relative="1" as="geometry" />
        </mxCell>
        <mxCell id="Db2AENE4Oa-zg9t5X0lz-26" style="rounded=0;orthogonalLoop=1;jettySize=auto;html=1;entryX=0.5;entryY=0;entryDx=0;entryDy=0;entryPerimeter=0;dashed=1;dashPattern=12 12;endArrow=classic;endFill=1;" edge="1" parent="Db2AENE4Oa-zg9t5X0lz-36" source="Db2AENE4Oa-zg9t5X0lz-30" target="Db2AENE4Oa-zg9t5X0lz-22">
          <mxGeometry relative="1" as="geometry" />
        </mxCell>
        <mxCell id="Db2AENE4Oa-zg9t5X0lz-29" value="" style="rounded=0;orthogonalLoop=1;jettySize=auto;html=1;dashed=1;dashPattern=12 12;endArrow=none;endFill=0;" edge="1" parent="Db2AENE4Oa-zg9t5X0lz-36" source="Db2AENE4Oa-zg9t5X0lz-21">
          <mxGeometry relative="1" as="geometry">
            <mxPoint x="940" y="170" as="targetPoint" />
            <mxPoint x="828" y="136" as="sourcePoint" />
          </mxGeometry>
        </mxCell>
        <mxCell id="Db2AENE4Oa-zg9t5X0lz-28" value="Realiza llamadas" style="text;html=1;align=center;verticalAlign=middle;whiteSpace=wrap;rounded=0;" vertex="1" parent="Db2AENE4Oa-zg9t5X0lz-36">
          <mxGeometry x="900" y="172" width="60" height="30" as="geometry" />
        </mxCell>
        <mxCell id="Db2AENE4Oa-zg9t5X0lz-31" value="" style="rounded=0;orthogonalLoop=1;jettySize=auto;html=1;entryX=0.5;entryY=0;entryDx=0;entryDy=0;dashed=1;dashPattern=12 12;endArrow=none;endFill=0;" edge="1" parent="Db2AENE4Oa-zg9t5X0lz-36" source="Db2AENE4Oa-zg9t5X0lz-20" target="Db2AENE4Oa-zg9t5X0lz-30">
          <mxGeometry relative="1" as="geometry">
            <mxPoint x="622" y="136" as="sourcePoint" />
            <mxPoint x="730" y="226" as="targetPoint" />
          </mxGeometry>
        </mxCell>
        <mxCell id="Db2AENE4Oa-zg9t5X0lz-30" value="Realiza llamadas" style="text;html=1;align=center;verticalAlign=middle;whiteSpace=wrap;rounded=0;" vertex="1" parent="Db2AENE4Oa-zg9t5X0lz-36">
          <mxGeometry x="700" y="172" width="60" height="30" as="geometry" />
        </mxCell>
        <mxCell id="Db2AENE4Oa-zg9t5X0lz-33" value="" style="edgeStyle=orthogonalEdgeStyle;rounded=0;orthogonalLoop=1;jettySize=auto;html=1;entryX=0.993;entryY=0.594;entryDx=0;entryDy=0;entryPerimeter=0;dashed=1;dashPattern=12 12;endArrow=none;endFill=0;" edge="1" parent="Db2AENE4Oa-zg9t5X0lz-36" source="Db2AENE4Oa-zg9t5X0lz-22" target="Db2AENE4Oa-zg9t5X0lz-32">
          <mxGeometry relative="1" as="geometry">
            <mxPoint x="617" y="286" as="sourcePoint" />
            <mxPoint x="378" y="287" as="targetPoint" />
          </mxGeometry>
        </mxCell>
        <mxCell id="Db2AENE4Oa-zg9t5X0lz-32" value="Lee y escribe" style="text;html=1;align=center;verticalAlign=middle;whiteSpace=wrap;rounded=0;" vertex="1" parent="Db2AENE4Oa-zg9t5X0lz-36">
          <mxGeometry x="470" y="276" width="60" height="30" as="geometry" />
        </mxCell>
        <mxCell id="Db2AENE4Oa-zg9t5X0lz-35" value="" style="edgeStyle=orthogonalEdgeStyle;rounded=0;orthogonalLoop=1;jettySize=auto;html=1;entryX=0;entryY=0.5;entryDx=0;entryDy=0;entryPerimeter=0;dashed=1;dashPattern=12 12;endArrow=none;endFill=0;" edge="1" parent="Db2AENE4Oa-zg9t5X0lz-36" source="Db2AENE4Oa-zg9t5X0lz-19" target="Db2AENE4Oa-zg9t5X0lz-34">
          <mxGeometry relative="1" as="geometry">
            <mxPoint x="330" y="76" as="sourcePoint" />
            <mxPoint x="430" y="76" as="targetPoint" />
          </mxGeometry>
        </mxCell>
        <mxCell id="Db2AENE4Oa-zg9t5X0lz-34" value="Entrega al navegador&amp;nbsp;" style="text;html=1;align=center;verticalAlign=middle;whiteSpace=wrap;rounded=0;" vertex="1" parent="Db2AENE4Oa-zg9t5X0lz-36">
          <mxGeometry x="350" y="61" width="60" height="30" as="geometry" />
        </mxCell>
        <mxCell id="Db2AENE4Oa-zg9t5X0lz-37" style="rounded=0;orthogonalLoop=1;jettySize=auto;html=1;entryX=1;entryY=0.75;entryDx=0;entryDy=0;entryPerimeter=0;dashed=1;dashPattern=12 12;" edge="1" parent="1" source="Db2AENE4Oa-zg9t5X0lz-14" target="Db2AENE4Oa-zg9t5X0lz-1">
          <mxGeometry relative="1" as="geometry" />
        </mxCell>
        <mxCell id="Db2AENE4Oa-zg9t5X0lz-40" style="rounded=0;orthogonalLoop=1;jettySize=auto;html=1;entryX=0.5;entryY=0;entryDx=0;entryDy=0;entryPerimeter=0;dashed=1;dashPattern=12 12;" edge="1" parent="1" source="Db2AENE4Oa-zg9t5X0lz-43" target="Db2AENE4Oa-zg9t5X0lz-19">
          <mxGeometry relative="1" as="geometry" />
        </mxCell>
        <mxCell id="Db2AENE4Oa-zg9t5X0lz-41" style="rounded=0;orthogonalLoop=1;jettySize=auto;html=1;entryX=0;entryY=0.5;entryDx=0;entryDy=0;entryPerimeter=0;dashed=1;dashPattern=12 12;exitX=0.865;exitY=0.006;exitDx=0;exitDy=0;exitPerimeter=0;" edge="1" parent="1" source="Db2AENE4Oa-zg9t5X0lz-51" target="Db2AENE4Oa-zg9t5X0lz-5">
          <mxGeometry relative="1" as="geometry" />
        </mxCell>
        <mxCell id="Db2AENE4Oa-zg9t5X0lz-42" style="rounded=0;orthogonalLoop=1;jettySize=auto;html=1;dashed=1;dashPattern=12 12;entryX=0;entryY=0.5;entryDx=0;entryDy=0;entryPerimeter=0;" edge="1" parent="1" source="Db2AENE4Oa-zg9t5X0lz-53" target="Db2AENE4Oa-zg9t5X0lz-16">
          <mxGeometry relative="1" as="geometry">
            <mxPoint x="-250" y="-412" as="targetPoint" />
          </mxGeometry>
        </mxCell>
        <mxCell id="Db2AENE4Oa-zg9t5X0lz-44" value="" style="rounded=0;orthogonalLoop=1;jettySize=auto;html=1;entryX=0.5;entryY=0;entryDx=0;entryDy=0;entryPerimeter=0;dashed=1;dashPattern=12 12;endArrow=none;endFill=0;" edge="1" parent="1" source="Db2AENE4Oa-zg9t5X0lz-1" target="Db2AENE4Oa-zg9t5X0lz-43">
          <mxGeometry relative="1" as="geometry">
            <mxPoint x="-1027" y="-972" as="sourcePoint" />
            <mxPoint x="-1490" y="-704" as="targetPoint" />
            <Array as="points">
              <mxPoint x="-1120" y="-930" />
            </Array>
          </mxGeometry>
        </mxCell>
        <mxCell id="Db2AENE4Oa-zg9t5X0lz-43" value="&lt;font style=&quot;font-size: 12px;&quot;&gt;Visita SISGEB.com&lt;/font&gt;" style="text;html=1;align=center;verticalAlign=middle;whiteSpace=wrap;rounded=0;fontSize=16;" vertex="1" parent="1">
          <mxGeometry x="-1230" y="-890" width="60" height="30" as="geometry" />
        </mxCell>
        <mxCell id="Db2AENE4Oa-zg9t5X0lz-46" value="" style="rounded=0;orthogonalLoop=1;jettySize=auto;html=1;dashed=1;dashPattern=12 12;endArrow=none;endFill=0;" edge="1" parent="1" source="Db2AENE4Oa-zg9t5X0lz-1" target="Db2AENE4Oa-zg9t5X0lz-45">
          <mxGeometry relative="1" as="geometry">
            <mxPoint x="-953" y="-940" as="sourcePoint" />
            <mxPoint x="-1022" y="-704" as="targetPoint" />
          </mxGeometry>
        </mxCell>
        <mxCell id="Db2AENE4Oa-zg9t5X0lz-45" value="&lt;font style=&quot;font-size: 12px;&quot;&gt;&amp;nbsp;Gestiona el MB&lt;/font&gt;" style="text;html=1;align=center;verticalAlign=middle;whiteSpace=wrap;rounded=0;fontSize=16;" vertex="1" parent="1">
          <mxGeometry x="-1010" y="-890" width="60" height="30" as="geometry" />
        </mxCell>
        <mxCell id="Db2AENE4Oa-zg9t5X0lz-49" value="" style="rounded=0;orthogonalLoop=1;jettySize=auto;html=1;dashed=1;dashPattern=12 12;endArrow=none;endFill=0;" edge="1" parent="1" source="Db2AENE4Oa-zg9t5X0lz-1" target="Db2AENE4Oa-zg9t5X0lz-48">
          <mxGeometry relative="1" as="geometry">
            <mxPoint x="-846" y="-940" as="sourcePoint" />
            <mxPoint x="-634" y="-704" as="targetPoint" />
          </mxGeometry>
        </mxCell>
        <mxCell id="Db2AENE4Oa-zg9t5X0lz-48" value="&lt;font style=&quot;font-size: 12px;&quot;&gt;Visualiza el MB disponible y reserva&lt;/font&gt;" style="text;html=1;align=center;verticalAlign=middle;whiteSpace=wrap;rounded=0;fontSize=16;" vertex="1" parent="1">
          <mxGeometry x="-820" y="-890" width="100" height="60" as="geometry" />
        </mxCell>
        <mxCell id="Db2AENE4Oa-zg9t5X0lz-50" value="" style="rounded=0;orthogonalLoop=1;jettySize=auto;html=1;entryX=1;entryY=0.75;entryDx=0;entryDy=0;entryPerimeter=0;dashed=1;dashPattern=12 12;endArrow=none;endFill=0;" edge="1" parent="1" source="Db2AENE4Oa-zg9t5X0lz-5" target="Db2AENE4Oa-zg9t5X0lz-14">
          <mxGeometry relative="1" as="geometry">
            <mxPoint x="-260" y="-717" as="sourcePoint" />
            <mxPoint x="-827" y="-985" as="targetPoint" />
          </mxGeometry>
        </mxCell>
        <mxCell id="Db2AENE4Oa-zg9t5X0lz-14" value="&lt;font style=&quot;font-size: 12px;&quot;&gt;Mails para&lt;/font&gt;" style="text;html=1;align=center;verticalAlign=middle;whiteSpace=wrap;rounded=0;fontSize=16;" vertex="1" parent="1">
          <mxGeometry x="-620" y="-890" width="60" height="30" as="geometry" />
        </mxCell>
        <mxCell id="Db2AENE4Oa-zg9t5X0lz-52" value="" style="rounded=0;orthogonalLoop=1;jettySize=auto;html=1;entryX=0;entryY=0.75;entryDx=0;entryDy=0;dashed=1;dashPattern=12 12;endArrow=none;endFill=0;" edge="1" parent="1" source="Db2AENE4Oa-zg9t5X0lz-22" target="Db2AENE4Oa-zg9t5X0lz-51">
          <mxGeometry relative="1" as="geometry">
            <mxPoint x="-700" y="-465" as="sourcePoint" />
            <mxPoint x="-260" y="-660" as="targetPoint" />
          </mxGeometry>
        </mxCell>
        <mxCell id="Db2AENE4Oa-zg9t5X0lz-51" value="&lt;font style=&quot;font-size: 12px;&quot;&gt;Envia mails usando&lt;/font&gt;" style="text;html=1;align=center;verticalAlign=middle;whiteSpace=wrap;rounded=0;fontSize=16;" vertex="1" parent="1">
          <mxGeometry x="-390" y="-629" width="80" height="30" as="geometry" />
        </mxCell>
        <mxCell id="Db2AENE4Oa-zg9t5X0lz-54" value="" style="rounded=0;orthogonalLoop=1;jettySize=auto;html=1;dashed=1;dashPattern=12 12;entryX=0;entryY=0.5;entryDx=0;entryDy=0;entryPerimeter=0;endArrow=none;endFill=0;" edge="1" parent="1" source="Db2AENE4Oa-zg9t5X0lz-22" target="Db2AENE4Oa-zg9t5X0lz-53">
          <mxGeometry relative="1" as="geometry">
            <mxPoint x="-700" y="-416" as="sourcePoint" />
            <mxPoint x="-250" y="-430" as="targetPoint" />
          </mxGeometry>
        </mxCell>
        <mxCell id="Db2AENE4Oa-zg9t5X0lz-53" value="&lt;font style=&quot;font-size: 12px;&quot;&gt;Realiza llamadas al API&lt;/font&gt;" style="text;html=1;align=center;verticalAlign=middle;whiteSpace=wrap;rounded=0;fontSize=16;" vertex="1" parent="1">
          <mxGeometry x="-460" y="-444" width="120" height="30" as="geometry" />
        </mxCell>
      </root>
    </mxGraphModel>
  </diagram>
</mxfile>
